<?xml version="1.0" encoding="utf-8"?>
<!-- Generator: Adobe Illustrator 16.0.4, SVG Export Plug-In . SVG Version: 6.00 Build 0)  -->
<!DOCTYPE svg PUBLIC "-//W3C//DTD SVG 1.1//EN" "http://www.w3.org/Graphics/SVG/1.1/DTD/svg11.dtd">
<svg version="1.1" xmlns="http://www.w3.org/2000/svg" xmlns:xlink="http://www.w3.org/1999/xlink" x="0px" y="0px"
	 width="24.759px" height="75px" viewBox="0 0 24.759 75" enable-background="new 0 0 24.759 75" xml:space="preserve">
<g id="Layer_1_1_">
</g>
<g id="Original" display="none">
</g>
<g id="Red">
</g>
<g id="Green">
</g>
<g id="Black">
	<g>
		<path fill="#666666" d="M16.809,38.017c0-2.122,0.151-12.421,1.429-13.927h1.569v-4.952h-4.278
			c0.916-0.848,1.493-2.058,1.493-3.404c0-2.564-2.078-4.642-4.642-4.642c-2.564,0-4.644,2.077-4.644,4.642
			c0,1.347,0.578,2.557,1.494,3.404H4.952v4.952h1.568c1.278,1.506,1.43,11.805,1.43,13.927c0,4.728-3.202,18.472-7.95,18.564v6.809
			h24.759v-6.809C20.011,56.488,16.809,42.744,16.809,38.017z"/>
		<rect x="4.952" y="19.138" opacity="0.01" width="7.428" height="4.952"/>
		<rect x="12.38" y="19.138" opacity="0.5" width="7.427" height="4.952"/>
		<path d="M16.809,38.017c0-2.122,0.151-12.421,1.429-13.927H12.38v32.491h12.379C20.011,56.488,16.809,42.744,16.809,38.017z"/>
		<path opacity="0.3" d="M6.521,24.09c1.278,1.506,1.43,11.805,1.43,13.927c0,4.728-3.202,18.472-7.95,18.564h12.38V24.09H6.521z"/>
		<rect x="12.38" y="56.581" opacity="0.4" width="12.379" height="6.809"/>
		<rect y="56.581" opacity="0.01" width="12.38" height="6.809"/>
		<path opacity="0.01" d="M7.736,15.733c0,1.347,0.578,2.557,1.494,3.404h3.149v-8.046C9.815,11.092,7.736,13.169,7.736,15.733z"/>
		<path opacity="0.4" d="M17.021,15.733c0-2.564-2.078-4.642-4.642-4.642v8.046h3.148C16.444,18.29,17.021,17.08,17.021,15.733z"/>
	</g>
</g>
<g id="BlackX" display="none">
</g>
<g id="White">
</g>
</svg>
