<?xml version="1.0" encoding="utf-8"?>
<!-- Generator: Adobe Illustrator 16.0.4, SVG Export Plug-In . SVG Version: 6.00 Build 0)  -->
<!DOCTYPE svg PUBLIC "-//W3C//DTD SVG 1.1//EN" "http://www.w3.org/Graphics/SVG/1.1/DTD/svg11.dtd">
<svg version="1.1" xmlns="http://www.w3.org/2000/svg" xmlns:xlink="http://www.w3.org/1999/xlink" x="0px" y="0px"
	 width="24.759px" height="75px" viewBox="0 0 24.759 75" enable-background="new 0 0 24.759 75" xml:space="preserve">
<g id="Layer_1_1_">
</g>
<g id="Original" display="none">
</g>
<g id="Red">
</g>
<g id="Green">
</g>
<g id="Black">
</g>
<g id="BlackX" display="none">
</g>
<g id="White">
	<g>
		<path fill="#E8E8E8" d="M0.25,63.399v-6.324c4.836-0.54,7.95-14.083,7.95-18.8c0-0.504-0.017-12.354-1.489-14.088L6.636,24.1
			H5.202v-4.452h4.667L9.4,19.214c-0.898-0.831-1.413-2.005-1.413-3.221c0-2.422,1.971-4.393,4.393-4.393s4.392,1.971,4.392,4.393
			c0,1.216-0.515,2.39-1.413,3.221l-0.469,0.434h4.667V24.1h-1.436l-0.074,0.088c-1.472,1.734-1.488,13.584-1.488,14.088
			c0,4.717,3.114,18.26,7.95,18.8v6.324H0.25z"/>
		<path d="M12.38,11.851c2.283,0,4.142,1.858,4.142,4.143c0,1.163-0.474,2.242-1.333,3.037l-0.937,0.867h1.276h3.778v3.952h-1.069
			h-0.231l-0.149,0.177c-1.505,1.772-1.548,12.978-1.548,14.249c0,4.416,2.898,18.079,7.95,19.016v5.858H0.5v-5.858
			c5.052-0.937,7.95-14.6,7.95-19.016c0-1.271-0.043-12.477-1.549-14.249L6.752,23.85H6.521H5.452v-3.952H9.23h1.276L9.57,19.03
			c-0.859-0.795-1.333-1.874-1.333-3.037C8.237,13.709,10.096,11.851,12.38,11.851 M12.38,11.351c-2.564,0-4.643,2.078-4.643,4.643
			c0,1.347,0.577,2.557,1.493,3.404H4.952v4.952h1.568c1.278,1.506,1.43,11.805,1.43,13.926c0,4.729-3.202,18.473-7.95,18.565v6.809
			h24.759v-6.809c-4.749-0.093-7.95-13.837-7.95-18.565c0-2.121,0.151-12.42,1.429-13.926h1.569v-4.952h-4.278
			c0.916-0.848,1.493-2.058,1.493-3.404C17.021,13.429,14.943,11.351,12.38,11.351L12.38,11.351z"/>
	</g>
	<g>
		<rect x="4.952" y="19.397" opacity="0.01" width="7.428" height="4.952"/>
		<rect x="12.38" y="19.397" opacity="0.1" width="7.427" height="4.952"/>
		<path opacity="0.2" d="M16.809,38.275c0-2.121,0.151-12.42,1.429-13.926H12.38v32.491h12.379
			C20.01,56.748,16.809,43.004,16.809,38.275z"/>
		<path opacity="0.05" d="M6.521,24.35c1.278,1.506,1.43,11.805,1.43,13.926c0,4.729-3.202,18.473-7.95,18.565h12.38V24.35H6.521z"
			/>
		<rect x="12.38" y="56.841" opacity="0.13" width="12.379" height="6.809"/>
		<rect y="56.841" opacity="0.01" width="12.38" height="6.809"/>
		<path opacity="0.01" d="M7.737,15.993c0,1.347,0.577,2.557,1.493,3.404h3.149v-8.047C9.815,11.351,7.737,13.429,7.737,15.993z"/>
		<path opacity="0.13" d="M17.021,15.993c0-2.564-2.078-4.643-4.642-4.643v8.047h3.148C16.444,18.55,17.021,17.34,17.021,15.993z"/>
	</g>
</g>
</svg>
