<?xml version="1.0" encoding="utf-8"?>
<!-- Generator: Adobe Illustrator 16.0.4, SVG Export Plug-In . SVG Version: 6.00 Build 0)  -->
<!DOCTYPE svg PUBLIC "-//W3C//DTD SVG 1.1//EN" "http://www.w3.org/Graphics/SVG/1.1/DTD/svg11.dtd">
<svg version="1.1" xmlns="http://www.w3.org/2000/svg" xmlns:xlink="http://www.w3.org/1999/xlink" x="0px" y="0px" width="55px"
	 height="121.168px" viewBox="0 0 55 121.168" enable-background="new 0 0 55 121.168" xml:space="preserve">
<g id="Layer_1_1_">
</g>
<g id="Original" display="none">
</g>
<g id="Red">
</g>
<g id="Green">
</g>
<g id="Black">
	<path fill="#E8E8E8" stroke="#000000" stroke-miterlimit="10" d="M36.061,74.633c0-8.277,2.837-11.895,7.591-17.964h2.599v-12
		h-7.417l5.167-17l-11.983-7.04v-5.457l6.139,1.372V4.767l-6.139,1.372L33.39,0H21.611l1.373,6.139l-6.14-1.372v11.777l6.14-1.372
		v5.466L11,27.669l5.168,17H8.75v12h2.599c4.754,6.069,7.592,9.687,7.592,17.964c0,13.617-7.659,24.462-18.94,30.535v16h55v-16
		C43.719,99.095,36.061,88.25,36.061,74.633z"/>
	<polygon opacity="0.1" points="32.017,15.172 38.155,16.544 38.155,4.767 32.017,6.139 33.39,0 27.5,0 27.5,27.669 44,27.669 
		32.017,20.629 	"/>
	<polygon opacity="0.05" points="11,27.669 16.168,44.669 27.5,44.669 27.5,27.669 	"/>
	<polygon opacity="0.2" points="44,27.669 27.5,27.669 27.5,44.669 38.833,44.669 	"/>
	<rect x="27.5" y="44.669" opacity="0.1" width="18.75" height="12"/>
	<rect x="8.75" y="44.669" opacity="0.01" width="18.75" height="12"/>
	<path opacity="0.05" d="M11.349,56.669c4.754,6.069,7.592,9.687,7.592,17.964c0,13.617-7.659,24.462-18.94,30.535h27.5V56.669
		H11.349z"/>
	<path opacity="0.2" d="M36.061,74.633c0-8.277,2.837-11.895,7.591-17.964H27.5v48.499H55C43.719,99.095,36.061,88.25,36.061,74.633
		z"/>
	<rect y="105.168" opacity="0.01" width="27.5" height="16"/>
	<rect x="27.5" y="105.168" opacity="0.13" width="27.5" height="16"/>
	<polygon opacity="0.01" points="21.611,0 22.984,6.139 16.845,4.767 16.845,16.544 22.984,15.172 22.984,20.638 11,27.669 
		27.5,27.669 27.5,0 	"/>
</g>
<g id="BlackX" display="none">
</g>
<g id="White">
</g>
</svg>
